<?xml version="1.0" encoding="UTF-8" standalone="no"?>
<!-- Created with Inkscape (http://www.inkscape.org/) -->

<svg
   xmlns:dc="http://purl.org/dc/elements/1.1/"
   xmlns:cc="http://creativecommons.org/ns#"
   xmlns:rdf="http://www.w3.org/1999/02/22-rdf-syntax-ns#"
   xmlns:svg="http://www.w3.org/2000/svg"
   xmlns="http://www.w3.org/2000/svg"
   xmlns:sodipodi="http://sodipodi.sourceforge.net/DTD/sodipodi-0.dtd"
   xmlns:inkscape="http://www.inkscape.org/namespaces/inkscape"
   width="131.71364mm"
   height="51.238464mm"
   viewBox="0 0 131.71364 51.238464"
   version="1.1"
   id="svg8"
   inkscape:version="0.92.1 r"
   sodipodi:docname="logo.svg"
   inkscape:export-filename="/home/jraleman/Desktop/logo.svg.png"
   inkscape:export-xdpi="96.190147"
   inkscape:export-ydpi="96.190147">
  <defs
     id="defs2" />
  <sodipodi:namedview
     id="base"
     pagecolor="#ffffff"
     bordercolor="#666666"
     borderopacity="1.0"
     inkscape:pageopacity="0.0"
     inkscape:pageshadow="2"
     inkscape:zoom="1.4"
     inkscape:cx="-6.8964945"
     inkscape:cy="111.08558"
     inkscape:document-units="mm"
     inkscape:current-layer="text4487"
     showgrid="false"
     inkscape:window-width="1920"
     inkscape:window-height="1009"
     inkscape:window-x="0"
     inkscape:window-y="29"
     inkscape:window-maximized="1"
     fit-margin-top="0"
     fit-margin-left="0"
     fit-margin-right="0"
     fit-margin-bottom="0" />
  <metadata
     id="metadata5">
    <rdf:RDF>
      <cc:Work
         rdf:about="">
        <dc:format>image/svg+xml</dc:format>
        <dc:type
           rdf:resource="http://purl.org/dc/dcmitype/StillImage" />
        <dc:title></dc:title>
      </cc:Work>
    </rdf:RDF>
  </metadata>
  <g
     inkscape:label="Layer 1"
     inkscape:groupmode="layer"
     id="layer1"
     transform="translate(-49.918693,-96.806242)">
    <g
       aria-label="VogonS"
       style="font-style:normal;font-variant:normal;font-weight:normal;font-stretch:normal;font-size:41.68590927px;line-height:1.25;font-family:ArnStylo;-inkscape-font-specification:ArnStylo;letter-spacing:0px;word-spacing:0px;fill:#000000;fill-opacity:1;stroke:none;stroke-width:1.04214764"
       id="text4487">
      <path
         d="m 65.856226,137.64329 q -4.98684,-3.46025 -6.961221,-11.54097 -0.997368,-4.03018 -0.997368,-7.36831 h -7.978944 q 0,12.07019 5.35322,19.47921 3.989472,5.51605 10.584313,8.06036 4.396561,1.68942 7.978944,1.68942 v -21.25005 q 0,-4.98684 -3.989472,-6.98157 -1.994736,-0.99737 -3.989472,-0.99737 z"
         style="font-style:normal;font-variant:normal;font-weight:normal;font-stretch:normal;font-family:ArnStylo;-inkscape-font-specification:ArnStylo;stroke-width:1.04214764"
         id="path4489"
         inkscape:export-xdpi="96.190147"
         inkscape:export-ydpi="96.190147"
         inkscape:connector-curvature="0" />
      <path
         d="m 85.885002,132.92106 q -1.567293,0 -2.686787,-1.09914 -1.09914,-1.11949 -1.09914,-2.68679 0,-1.54693 1.09914,-2.66643 1.119494,-1.09914 2.686787,-1.09914 1.546938,0 2.666433,1.09914 1.09914,1.1195 1.09914,2.66643 0,1.5673 -1.09914,2.68679 -1.119495,1.09914 -2.666433,1.09914 z m -0.203545,-14.1667 q -4.315142,0 -7.347955,3.05317 -3.053167,3.03281 -3.053167,7.3276 0,4.31515 3.053167,7.34796 3.032813,3.05317 7.347955,3.05317 4.294789,0 7.327602,-3.05317 3.053167,-3.03281 3.053167,-7.34796 0,-4.29479 -3.053167,-7.3276 -3.032813,-3.05317 -7.327602,-3.05317 z m -9.648008,29.18828 h 22.389893 v -6.06562 H 76.033449 Z"
         style="font-style:normal;font-variant:normal;font-weight:normal;font-stretch:normal;font-family:ArnStylo;-inkscape-font-specification:ArnStylo;stroke-width:1.04214764"
         id="path4491"
         inkscape:export-xdpi="96.190147"
         inkscape:export-ydpi="96.190147"
         inkscape:connector-curvature="0" />
      <path
         d="m 118.3707,136.80876 c 0,-2.36111 -0.74682,-5.15054 -2.42946,-6.10042 -0.84132,-0.47493 -2.22597,-1.25574 -3.09091,-1.32661 l -4.48779,-0.70871 v 0 l 0.54334,3.41351 c 0.18998,0 0.4071,0.0407 0.65135,0.12212 0.47493,0.14927 0.81417,0.42066 1.01772,0.81418 h -2.60537 c -1.04486,0 -1.94046,-0.36638 -2.68679,-1.09914 -0.73276,-0.73276 -1.09914,-1.62835 -1.09914,-2.68678 0,-1.04487 0.36638,-1.93368 1.09914,-2.66644 0.73276,-0.74633 1.62836,-1.11949 2.68679,-1.11949 1.04486,0 1.93367,0.37316 2.66643,1.11949 l 4.70188,-4.70187 c -2.04901,-2.02188 -4.50512,-3.03282 -7.36831,-3.03282 -2.87676,0 -5.33286,1.01094 -7.36831,3.03282 -2.035446,2.04901 -3.053169,4.50512 -3.053169,7.36831 0,1.30268 0.237469,2.56465 0.712406,3.78592 0.529216,1.37053 1.30947,2.56466 2.340763,3.58239 2.03545,2.03544 4.49155,3.05316 7.36831,3.05316 v 0 0 h 10.42148 z m -20.273028,11.13388 h 22.613788 v -6.06562 H 98.097672 Z"
         style="font-style:normal;font-variant:normal;font-weight:normal;font-stretch:normal;font-family:ArnStylo;-inkscape-font-specification:ArnStylo;stroke-width:1.04214764"
         id="path4493"
         inkscape:export-xdpi="96.190147"
         inkscape:export-ydpi="96.190147"
         inkscape:connector-curvature="0"
         sodipodi:nodetypes="ccccccccscscsccscscccccccccccc" />
      <path
         d="m 130.2577,132.92106 q -1.56729,0 -2.68679,-1.09914 -1.09914,-1.11949 -1.09914,-2.68679 0,-1.54693 1.09914,-2.66643 1.1195,-1.09914 2.68679,-1.09914 1.54694,0 2.66643,1.09914 1.09914,1.1195 1.09914,2.66643 0,1.5673 -1.09914,2.68679 -1.11949,1.09914 -2.66643,1.09914 z m -0.20354,-14.1667 q -4.31515,0 -7.34796,3.05317 -3.05317,3.03281 -3.05317,7.3276 0,4.31515 3.05317,7.34796 3.03281,3.05317 7.34796,3.05317 4.29478,0 7.3276,-3.05317 3.05316,-3.03281 3.05316,-7.34796 0,-4.29479 -3.05316,-7.3276 -3.03282,-3.05317 -7.3276,-3.05317 z m -9.64801,29.18828 h 22.38989 v -6.06562 h -22.38989 z"
         style="font-style:normal;font-variant:normal;font-weight:normal;font-stretch:normal;font-family:ArnStylo;-inkscape-font-specification:ArnStylo;stroke-width:1.04214764"
         id="path4495"
         inkscape:export-xdpi="96.190147"
         inkscape:export-ydpi="96.190147"
         inkscape:connector-curvature="0" />
      <path
         d="m 142.55179,118.77472 v 15.20477 q 0,1.42481 0.7124,2.84962 1.42482,2.84963 4.98684,2.84963 v -15.20478 q 0.48851,0 0.95666,0.24426 0.95666,0.46815 0.95666,1.66906 v 7.59221 q 0,1.42481 0.71241,2.84962 1.42481,2.84963 4.96648,2.84963 v -13.29146 q 0,-1.91332 -0.9363,-3.80628 -1.89296,-3.80628 -6.65591,-3.80628 z m -0.0814,29.16792 h 15.59151 v -6.06562 h -15.59151 z"
         style="font-style:normal;font-variant:normal;font-weight:normal;font-stretch:normal;font-family:ArnStylo;-inkscape-font-specification:ArnStylo;stroke-width:1.04214764"
         id="path4497"
         inkscape:export-xdpi="96.190147"
         inkscape:export-ydpi="96.190147"
         inkscape:connector-curvature="0" />
      <path
         d="m 167.01783,129.44045 c -0.36638,0 -0.67848,-0.12891 -0.9363,-0.38673 -0.25783,-0.27139 -0.38674,-0.59028 -0.38674,-0.95666 0,-0.36638 0.12891,-0.67848 0.38674,-0.93631 0.25782,-0.25782 0.56992,-0.38673 0.9363,-0.38673 h 6.65591 c 3.32456,0 5.64497,-1.32982 6.96122,-3.98947 0.66491,-1.32983 0.99737,-2.65965 0.99737,-3.98948 h -15.93754 c -3.32456,0 -5.65175,1.32983 -6.98157,3.98948 -0.66491,1.32982 -0.99737,2.65964 -0.99737,3.98947 v 2.66643 c 0,1.32983 0.33246,2.65965 0.99737,3.98947 1.32982,2.65965 3.65701,3.98947 6.98157,3.98947 h 6.63555 c 0.36638,0 0.68527,0.12891 0.95666,0.38674 0.25783,0.25782 0.38674,0.56992 0.38674,0.9363 0,0.36638 -0.12891,0.67848 -0.38674,0.93631 -3.20862,2.7513 -9.06583,2.27763 -15.2251,2.19831 -0.66491,1.32983 0,4.73576 0,6.06559 l 15.61184,0.10181 c 3.32449,0.0217 5.64497,-1.32983 6.96122,-3.98948 0.66491,-1.32982 0.99737,-2.65964 0.99737,-3.98947 v -2.64608 c 0,-1.32982 -0.33246,-2.65964 -0.99737,-3.98947 -1.31625,-2.65965 -3.63666,-3.98947 -6.96122,-3.98947 z"
         style="font-style:normal;font-variant:normal;font-weight:normal;font-stretch:normal;font-family:ArnStylo;-inkscape-font-specification:ArnStylo;stroke-width:1.04214764"
         id="path4499"
         inkscape:connector-curvature="0"
         sodipodi:nodetypes="scssssccscsscsscscccscsscss"
         inkscape:export-xdpi="96.190147"
         inkscape:export-ydpi="96.190147" />
      <text
         xml:space="preserve"
         style="font-style:normal;font-weight:normal;font-size:24.12667656px;line-height:1.25;font-family:sans-serif;letter-spacing:0px;word-spacing:0px;fill:#000000;fill-opacity:1;stroke:none;stroke-width:0.62858897"
         x="50.257614"
         y="113.73497"
         id="text4491"><tspan
           sodipodi:role="line"
           id="tspan4489"
           x="50.257614"
           y="113.73497"
           style="font-style:normal;font-variant:normal;font-weight:normal;font-stretch:normal;font-family:ArnStylo;-inkscape-font-specification:ArnStylo;stroke-width:0.62858897">THE</tspan></text>
    </g>
  </g>
</svg>
