<?xml version="1.0" standalone="no"?>
<!DOCTYPE svg PUBLIC "-//W3C//DTD SVG 20010904//EN"
 "http://www.w3.org/TR/2001/REC-SVG-20010904/DTD/svg10.dtd">
<svg version="1.0" xmlns="http://www.w3.org/2000/svg"
 width="900.000000pt" height="900.000000pt" viewBox="0 0 900.000000 900.000000"
 preserveAspectRatio="xMidYMid meet">
<metadata>
Created by potrace 1.10, written by Peter Selinger 2001-2011
</metadata>
<g transform="translate(0.000000,900.000000) scale(0.100000,-0.100000)"
fill="#000000" stroke="none">
<path d="M5610 7592 c-11 -4 -15 -1514 -3 -1525 7 -8 1496 1489 1501 1509 3
11 -123 14 -742 16 -410 2 -751 2 -756 0z"/>
<path d="M7900 7590 c-421 -3 -765 -6 -765 -8 0 -1 1 -347 3 -769 l2 -767
-770 -771 -770 -770 0 -772 c0 -504 3 -772 10 -775 5 -1 351 -1 767 2 l758 5
5 767 5 768 773 773 772 772 0 766 c0 602 -3 768 -12 775 -8 5 -349 7 -778 4z"/>
<path d="M1834 6046 l-1544 -1544 2 -624 3 -623 1540 -5 1540 -5 5 -770 5
-770 770 0 770 0 3 1391 2 1392 -22 6 c-13 3 -702 6 -1533 6 -830 0 -1511 3
-1513 8 -1 4 682 694 1518 1532 836 839 1520 1531 1520 1538 0 9 -159 12 -761
12 l-761 0 -1544 -1544z"/>
<path d="M8179 3991 c-273 -273 -616 -614 -762 -759 -145 -144 -261 -265 -257
-267 5 -3 1274 -8 1518 -5 9 0 12 159 12 759 0 418 -3 762 -7 764 -5 3 -231
-219 -504 -492z"/>
</g>
</svg>
